<?xml version="1.0" encoding="utf-8"?>
<!-- Generator: Adobe Illustrator 17.1.0, SVG Export Plug-In . SVG Version: 6.00 Build 0)  -->
<!DOCTYPE svg PUBLIC "-//W3C//DTD SVG 1.1//EN" "http://www.w3.org/Graphics/SVG/1.1/DTD/svg11.dtd">
<svg version="1.1" id="Layer_1" xmlns="http://www.w3.org/2000/svg" xmlns:xlink="http://www.w3.org/1999/xlink" x="0px" y="0px"
	 viewBox="43 35 112 59" enable-background="new 43 35 112 59" xml:space="preserve">
<g>
	<path stroke="#FFFFFF" stroke-width="5" stroke-miterlimit="10" d="M75.4,48.4V84h-8.1l-4.8-16.2V84h-7.7V48.4h7.7l5.2,16v-16H75.4
		z"/>
	<path stroke="#FFFFFF" stroke-width="5" stroke-miterlimit="10" d="M88.4,48.4V84h-9.2V48.4H88.4z"/>
	<path stroke="#FFFFFF" stroke-width="5" stroke-miterlimit="10" d="M113.7,63.9h-9.3v-6.2c0-1.8-0.1-2.9-0.3-3.4
		c-0.2-0.4-0.6-0.7-1.3-0.7c-0.8,0-1.2,0.3-1.4,0.8c-0.2,0.5-0.3,1.7-0.3,3.5v16.5c0,1.7,0.1,2.9,0.3,3.4c0.2,0.5,0.7,0.8,1.4,0.8
		c0.7,0,1.1-0.3,1.4-0.8c0.2-0.5,0.3-1.8,0.3-3.7v-4.5h9.3V71c0,3.7-0.3,6.3-0.8,7.8s-1.7,2.9-3.5,4c-1.8,1.2-4,1.7-6.6,1.7
		c-2.7,0-4.9-0.5-6.7-1.5s-2.9-2.3-3.5-4.1c-0.6-1.7-0.9-4.3-0.9-7.8V60.9c0-2.6,0.1-4.5,0.3-5.8s0.7-2.5,1.6-3.7s2.1-2.1,3.6-2.8
		s3.3-1,5.3-1c2.7,0,5,0.5,6.7,1.6s2.9,2.4,3.5,3.9c0.6,1.6,0.8,4,0.8,7.3L113.7,63.9L113.7,63.9z"/>
	<path stroke="#FFFFFF" stroke-width="5" stroke-miterlimit="10" d="M117,48.4h15.4v7.1h-6.2v6.7h5.8V69h-5.8v7.8h6.8v7.1h-16V48.4z
		"/>
	<path stroke="#FFFFFF" stroke-width="5" stroke-miterlimit="10" d="M145.2,48.4l-1.5,26.8h-6.9l-1.5-26.8
		C135.3,48.4,145.2,48.4,145.2,48.4z M144.5,76.8v7.1h-8.3v-7.1H144.5z"/>
</g>
<g>
	
		<linearGradient id="SVGID_1_" gradientUnits="userSpaceOnUse" x1="65.1" y1="101.6" x2="65.1" y2="66" gradientTransform="matrix(1 0 0 -1 0 150)">
		<stop  offset="0" style="stop-color:#00AEEF"/>
		<stop  offset="0.4092" style="stop-color:#0094D7"/>
		<stop  offset="0.8054" style="stop-color:#007EC3"/>
		<stop  offset="1" style="stop-color:#1C75BC"/>
	</linearGradient>
	<path fill="url(#SVGID_1_)" d="M75.4,48.4V84h-8.1l-4.8-16.2V84h-7.7V48.4h7.7l5.2,16v-16H75.4z"/>
	
		<linearGradient id="SVGID_2_" gradientUnits="userSpaceOnUse" x1="83.8" y1="101.6" x2="83.8" y2="66" gradientTransform="matrix(1 0 0 -1 0 150)">
		<stop  offset="0" style="stop-color:#00AEEF"/>
		<stop  offset="0.4092" style="stop-color:#0094D7"/>
		<stop  offset="0.8054" style="stop-color:#007EC3"/>
		<stop  offset="1" style="stop-color:#1C75BC"/>
	</linearGradient>
	<path fill="url(#SVGID_2_)" d="M88.4,48.4V84h-9.2V48.4H88.4z"/>
	
		<linearGradient id="SVGID_3_" gradientUnits="userSpaceOnUse" x1="102.8" y1="102.4" x2="102.8" y2="65.3326" gradientTransform="matrix(1 0 0 -1 0 150)">
		<stop  offset="0" style="stop-color:#00AEEF"/>
		<stop  offset="0.4092" style="stop-color:#0094D7"/>
		<stop  offset="0.8054" style="stop-color:#007EC3"/>
		<stop  offset="1" style="stop-color:#1C75BC"/>
	</linearGradient>
	<path fill="url(#SVGID_3_)" d="M113.7,63.9h-9.3v-6.2c0-1.8-0.1-2.9-0.3-3.4c-0.2-0.4-0.6-0.7-1.3-0.7c-0.8,0-1.2,0.3-1.4,0.8
		c-0.2,0.5-0.3,1.7-0.3,3.5v16.5c0,1.7,0.1,2.9,0.3,3.4c0.2,0.5,0.7,0.8,1.4,0.8c0.7,0,1.1-0.3,1.4-0.8c0.2-0.5,0.3-1.8,0.3-3.7
		v-4.5h9.3V71c0,3.7-0.3,6.3-0.8,7.8s-1.7,2.9-3.5,4c-1.8,1.2-4,1.7-6.6,1.7c-2.7,0-4.9-0.5-6.7-1.5c-1.8-1-2.9-2.3-3.5-4.1
		c-0.6-1.7-0.9-4.3-0.9-7.8V60.9c0-2.6,0.1-4.5,0.3-5.8s0.7-2.5,1.6-3.7s2.1-2.1,3.6-2.8s3.3-1,5.3-1c2.7,0,5,0.5,6.7,1.6
		c1.8,1.1,2.9,2.4,3.5,3.9c0.6,1.6,0.8,4,0.8,7.3L113.7,63.9L113.7,63.9z"/>
	
		<linearGradient id="SVGID_4_" gradientUnits="userSpaceOnUse" x1="125" y1="101.6" x2="125" y2="66.0258" gradientTransform="matrix(1 0 0 -1 0 150)">
		<stop  offset="0" style="stop-color:#00AEEF"/>
		<stop  offset="0.4092" style="stop-color:#0094D7"/>
		<stop  offset="0.8054" style="stop-color:#007EC3"/>
		<stop  offset="1" style="stop-color:#1C75BC"/>
	</linearGradient>
	<path fill="url(#SVGID_4_)" d="M117,48.4h15.4v7.1h-6.2v6.7h5.8V69h-5.8v7.8h6.8v7.1h-16V48.4z"/>
	
		<linearGradient id="SVGID_5_" gradientUnits="userSpaceOnUse" x1="140.25" y1="101.6" x2="140.25" y2="66.0258" gradientTransform="matrix(1 0 0 -1 0 150)">
		<stop  offset="0" style="stop-color:#00AEEF"/>
		<stop  offset="0.4092" style="stop-color:#0094D7"/>
		<stop  offset="0.8054" style="stop-color:#007EC3"/>
		<stop  offset="1" style="stop-color:#1C75BC"/>
	</linearGradient>
	<path fill="url(#SVGID_5_)" d="M145.2,48.4l-1.5,26.8h-6.9l-1.5-26.8C135.3,48.4,145.2,48.4,145.2,48.4z M144.5,76.8v7.1h-8.3v-7.1
		H144.5z"/>
</g>
</svg>
