<?xml version="1.0" encoding="utf-8"?>
<!-- Generator: Adobe Illustrator 17.1.0, SVG Export Plug-In . SVG Version: 6.00 Build 0)  -->
<!DOCTYPE svg PUBLIC "-//W3C//DTD SVG 1.1//EN" "http://www.w3.org/Graphics/SVG/1.1/DTD/svg11.dtd">
<svg version="1.1" id="Layer_1" xmlns="http://www.w3.org/2000/svg" xmlns:xlink="http://www.w3.org/1999/xlink" x="0px" y="0px"
	 viewBox="33 49 134 49" enable-background="new 33 49 134 49" xml:space="preserve">
<g>
	<g>
		<path stroke="#FFFFFF" stroke-width="5" stroke-miterlimit="10" d="M58.9,56.7v33.9H50V76.4h-2.6v14.2h-8.8V56.7h8.8v12.1H50V56.7
			H58.9z"/>
		<path stroke="#FFFFFF" stroke-width="5" stroke-miterlimit="10" d="M82.4,56.7v22.7c0,2.6-0.1,4.4-0.3,5.4c-0.2,1-0.7,2.1-1.5,3.2
			s-1.9,1.9-3.3,2.5c-1.3,0.6-2.9,0.8-4.8,0.8c-2,0-3.8-0.3-5.4-1c-1.5-0.7-2.7-1.5-3.5-2.6c-0.8-1.1-1.2-2.2-1.4-3.4
			c-0.1-1.2-0.2-3.7-0.2-7.5V56.7h8.8v25.4c0,1.5,0.1,2.4,0.2,2.8c0.2,0.4,0.5,0.6,1,0.6c0.6,0,0.9-0.2,1.1-0.7s0.2-1.5,0.2-3.2v-25
			L82.4,56.7L82.4,56.7z"/>
		<path stroke="#FFFFFF" stroke-width="5" stroke-miterlimit="10" d="M85.9,56.7h6.2c4.2,0,7,0.2,8.5,0.5s2.7,1.1,3.6,2.5
			s1.4,3.4,1.4,6.3c0,2.6-0.3,4.4-1,5.3s-1.9,1.5-3.9,1.6c1.7,0.4,2.9,1,3.5,1.7s1,1.4,1.1,2s0.2,2.3,0.2,5v8.9h-8.2V79.3
			c0-1.8-0.1-2.9-0.4-3.4c-0.3-0.4-1-0.6-2.3-0.6v15.3h-8.8V56.7H85.9z M94.7,62.5V70c1,0,1.7-0.1,2.1-0.4s0.6-1.2,0.6-2.6v-1.9
			c0-1.1-0.2-1.8-0.6-2.1C96.4,62.7,95.7,62.5,94.7,62.5z"/>
		<path stroke="#FFFFFF" stroke-width="5" stroke-miterlimit="10" d="M109,56.7h6.2c4.2,0,7,0.2,8.5,0.5s2.7,1.1,3.6,2.5
			s1.4,3.4,1.4,6.3c0,2.6-0.3,4.4-1,5.3s-1.9,1.5-3.9,1.6c1.7,0.4,2.9,1,3.5,1.7s1,1.4,1.1,2s0.2,2.3,0.2,5v8.9h-8.2V79.3
			c0-1.8-0.1-2.9-0.4-3.4c-0.3-0.4-1-0.6-2.3-0.6v15.3H109V56.7z M117.8,62.5V70c1,0,1.7-0.1,2.1-0.4s0.6-1.2,0.6-2.6v-1.9
			c0-1.1-0.2-1.8-0.6-2.1C119.5,62.7,118.8,62.5,117.8,62.5z"/>
		<path stroke="#FFFFFF" stroke-width="5" stroke-miterlimit="10" d="M150.9,56.7l-6.4,21.6v12.3h-8.2V78.3l-6.2-21.6h8.1
			c1.3,6.6,2,11.1,2.1,13.4c0.5-3.6,1.3-8.1,2.5-13.4C142.8,56.7,150.9,56.7,150.9,56.7z"/>
		<path stroke="#FFFFFF" stroke-width="5" stroke-miterlimit="10" d="M161.4,56.7L160,82.2h-6.5l-1.4-25.5
			C152.1,56.7,161.4,56.7,161.4,56.7z M160.7,83.8v6.8h-7.9v-6.8H160.7z"/>
	</g>
	<g>
		
			<linearGradient id="SVGID_1_" gradientUnits="userSpaceOnUse" x1="48.75" y1="93.3" x2="48.75" y2="59.4" gradientTransform="matrix(1 0 0 -1 0 150)">
			<stop  offset="0" style="stop-color:#ED1C24"/>
			<stop  offset="8.416594e-02" style="stop-color:#E21D2B"/>
			<stop  offset="0.5291" style="stop-color:#BC1F4D"/>
			<stop  offset="0.8449" style="stop-color:#A71F5D"/>
			<stop  offset="1" style="stop-color:#9E1F63"/>
		</linearGradient>
		<path fill="url(#SVGID_1_)" d="M58.9,56.7v33.9H50V76.4h-2.6v14.2h-8.8V56.7h8.8v12.1H50V56.7H58.9z"/>
		
			<linearGradient id="SVGID_2_" gradientUnits="userSpaceOnUse" x1="72.2" y1="93.313" x2="72.2" y2="58.687" gradientTransform="matrix(1 0 0 -1 0 150)">
			<stop  offset="0" style="stop-color:#ED1C24"/>
			<stop  offset="8.416594e-02" style="stop-color:#E21D2B"/>
			<stop  offset="0.5291" style="stop-color:#BC1F4D"/>
			<stop  offset="0.8449" style="stop-color:#A71F5D"/>
			<stop  offset="1" style="stop-color:#9E1F63"/>
		</linearGradient>
		<path fill="url(#SVGID_2_)" d="M82.4,56.7v22.7c0,2.6-0.1,4.4-0.3,5.4c-0.2,1-0.7,2.1-1.5,3.2s-1.9,1.9-3.3,2.5
			c-1.3,0.6-2.9,0.8-4.8,0.8c-2,0-3.8-0.3-5.4-1c-1.5-0.7-2.7-1.5-3.5-2.6c-0.8-1.1-1.2-2.2-1.4-3.4c-0.1-1.2-0.2-3.7-0.2-7.5V56.7
			h8.8v25.4c0,1.5,0.1,2.4,0.2,2.8c0.2,0.4,0.5,0.6,1,0.6c0.6,0,0.9-0.2,1.1-0.7s0.2-1.5,0.2-3.2v-25L82.4,56.7L82.4,56.7z"/>
		
			<linearGradient id="SVGID_3_" gradientUnits="userSpaceOnUse" x1="95.7" y1="93.3" x2="95.7" y2="59.4" gradientTransform="matrix(1 0 0 -1 0 150)">
			<stop  offset="0" style="stop-color:#ED1C24"/>
			<stop  offset="8.416594e-02" style="stop-color:#E21D2B"/>
			<stop  offset="0.5291" style="stop-color:#BC1F4D"/>
			<stop  offset="0.8449" style="stop-color:#A71F5D"/>
			<stop  offset="1" style="stop-color:#9E1F63"/>
		</linearGradient>
		<path fill="url(#SVGID_3_)" d="M85.9,56.7h6.2c4.2,0,7,0.2,8.5,0.5s2.7,1.1,3.6,2.5s1.4,3.4,1.4,6.3c0,2.6-0.3,4.4-1,5.3
			s-1.9,1.5-3.9,1.6c1.7,0.4,2.9,1,3.5,1.7s1,1.4,1.1,2s0.2,2.3,0.2,5v8.9h-8.2V79.3c0-1.8-0.1-2.9-0.4-3.4c-0.3-0.4-1-0.6-2.3-0.6
			v15.3h-8.8V56.7H85.9z M94.7,62.5V70c1,0,1.7-0.1,2.1-0.4s0.6-1.2,0.6-2.6v-1.9c0-1.1-0.2-1.8-0.6-2.1
			C96.4,62.7,95.7,62.5,94.7,62.5z"/>
		
			<linearGradient id="SVGID_4_" gradientUnits="userSpaceOnUse" x1="118.85" y1="93.3" x2="118.85" y2="59.4" gradientTransform="matrix(1 0 0 -1 0 150)">
			<stop  offset="0" style="stop-color:#ED1C24"/>
			<stop  offset="8.416594e-02" style="stop-color:#E21D2B"/>
			<stop  offset="0.5291" style="stop-color:#BC1F4D"/>
			<stop  offset="0.8449" style="stop-color:#A71F5D"/>
			<stop  offset="1" style="stop-color:#9E1F63"/>
		</linearGradient>
		<path fill="url(#SVGID_4_)" d="M109,56.7h6.2c4.2,0,7,0.2,8.5,0.5s2.7,1.1,3.6,2.5s1.4,3.4,1.4,6.3c0,2.6-0.3,4.4-1,5.3
			s-1.9,1.5-3.9,1.6c1.7,0.4,2.9,1,3.5,1.7s1,1.4,1.1,2s0.2,2.3,0.2,5v8.9h-8.2V79.3c0-1.8-0.1-2.9-0.4-3.4c-0.3-0.4-1-0.6-2.3-0.6
			v15.3H109V56.7z M117.8,62.5V70c1,0,1.7-0.1,2.1-0.4s0.6-1.2,0.6-2.6v-1.9c0-1.1-0.2-1.8-0.6-2.1
			C119.5,62.7,118.8,62.5,117.8,62.5z"/>
		
			<linearGradient id="SVGID_5_" gradientUnits="userSpaceOnUse" x1="140.5" y1="93.3" x2="140.5" y2="59.4" gradientTransform="matrix(1 0 0 -1 0 150)">
			<stop  offset="0" style="stop-color:#ED1C24"/>
			<stop  offset="8.416594e-02" style="stop-color:#E21D2B"/>
			<stop  offset="0.5291" style="stop-color:#BC1F4D"/>
			<stop  offset="0.8449" style="stop-color:#A71F5D"/>
			<stop  offset="1" style="stop-color:#9E1F63"/>
		</linearGradient>
		<path fill="url(#SVGID_5_)" d="M150.9,56.7l-6.4,21.6v12.3h-8.2V78.3l-6.2-21.6h8.1c1.3,6.6,2,11.1,2.1,13.4
			c0.5-3.6,1.3-8.1,2.5-13.4C142.8,56.7,150.9,56.7,150.9,56.7z"/>
		
			<linearGradient id="SVGID_6_" gradientUnits="userSpaceOnUse" x1="156.75" y1="93.3" x2="156.75" y2="59.4" gradientTransform="matrix(1 0 0 -1 0 150)">
			<stop  offset="0" style="stop-color:#ED1C24"/>
			<stop  offset="8.416594e-02" style="stop-color:#E21D2B"/>
			<stop  offset="0.5291" style="stop-color:#BC1F4D"/>
			<stop  offset="0.8449" style="stop-color:#A71F5D"/>
			<stop  offset="1" style="stop-color:#9E1F63"/>
		</linearGradient>
		<path fill="url(#SVGID_6_)" d="M161.4,56.7L160,82.2h-6.5l-1.4-25.5C152.1,56.7,161.4,56.7,161.4,56.7z M160.7,83.8v6.8h-7.9v-6.8
			H160.7z"/>
	</g>
</g>
</svg>
