<?xml version="1.0" encoding="utf-8"?>
<!-- Generator: Adobe Illustrator 17.1.0, SVG Export Plug-In . SVG Version: 6.00 Build 0)  -->
<!DOCTYPE svg PUBLIC "-//W3C//DTD SVG 1.0//EN" "http://www.w3.org/TR/2001/REC-SVG-20010904/DTD/svg10.dtd">
<svg version="1.0" id="Layer_1" xmlns="http://www.w3.org/2000/svg" xmlns:xlink="http://www.w3.org/1999/xlink" x="0px" y="0px"
	 viewBox="0 0 280 126" enable-background="new 0 0 280 126" xml:space="preserve">
<g>
	<linearGradient id="SVGID_1_" gradientUnits="userSpaceOnUse" x1="140" y1="0.3465" x2="140" y2="125.6535">
		<stop  offset="0" style="stop-color:#00AEEF"/>
		<stop  offset="0.2561" style="stop-color:#27AAE1"/>
		<stop  offset="0.5501" style="stop-color:#FFFFFF"/>
		<stop  offset="0.724" style="stop-color:#00AEEF"/>
	</linearGradient>
	<rect x="1" y="0.8" stroke="url(#SVGID_1_)" stroke-miterlimit="10" width="278" height="124.3"/>
	<linearGradient id="SVGID_2_" gradientUnits="userSpaceOnUse" x1="140" y1="51.2904" x2="140" y2="74.7096">
		<stop  offset="0" style="stop-color:#FFFFFF"/>
		<stop  offset="1" style="stop-color:#8F9194"/>
	</linearGradient>
	<path fill="url(#SVGID_2_)" d="M98.2,61v9h-1v-3.9h-0.1c-0.9,2.7-3.7,4.3-6.9,4.3c-5.5,0-8.6-4.2-8.6-9.5c0-5.2,3.1-9.7,8.6-9.7
		c3.8,0,7,2.3,7.6,6.1h-1.1c-0.8-3.1-3.2-5.1-6.5-5.1c-4.9,0-7.5,4.1-7.5,8.7c0,4.7,2.5,8.5,7.5,8.5c4.4,0,7.1-3,6.9-7.4h-6.7v-1
		H98.2z M101.4,63.5c0,3.1,1.6,5.9,4.8,5.9c2.5,0,4.2-1.5,4.7-3.9h1c-0.5,3.1-2.6,4.8-5.7,4.8c-3.8,0-5.9-3-5.8-6.7
		c0-3.6,1.8-7.1,5.8-7.1c4.1,0,6,3.3,5.8,7H101.4z M111.1,62.7c-0.1-2.8-1.8-5.3-4.8-5.3c-2.9,0-4.6,2.7-4.8,5.3H111.1z M119.2,57.7
		h-2.9v9.2c0,2.1,1,2.3,2.8,2.3V70c-2,0.1-3.9-0.2-3.8-3.1v-9.2h-2.4v-0.8h2.4v-4.1h1v4.1h2.9V57.7z M128.3,51.7h7.6
		c3.2,0,5.8,1.2,5.8,4.7c0,2.5-1.5,4.3-3.9,4.7v0c2.7,0.3,3.4,2,3.6,3.9c0.2,1.9-0.1,3.9,0.6,4.9h-1.3c-0.7-1.3-0.3-3.4-0.5-5.1
		c-0.2-1.8-1.1-3.2-4.3-3.2h-6.5V70h-1.1V51.7z M135.9,60.7c2.7,0,4.7-1.3,4.7-4.2c0-2.8-2.2-3.8-4.7-3.8h-6.5v8H135.9z M144.6,63.5
		c0,3.1,1.6,5.9,4.8,5.9c2.5,0,4.2-1.5,4.7-3.9h1c-0.5,3.1-2.6,4.8-5.7,4.8c-3.8,0-5.9-3-5.8-6.7c0-3.6,1.8-7.1,5.8-7.1
		c4.1,0,6,3.3,5.8,7H144.6z M154.2,62.7c-0.1-2.8-1.8-5.3-4.8-5.3c-2.9,0-4.6,2.7-4.8,5.3H154.2z M167.2,67.6c0,0.8,0,1.6,0.9,1.6
		c0.2,0,0.4,0,0.7-0.1v0.8c-0.3,0-0.5,0.1-0.8,0.1c-1.5,0-1.8-0.8-1.8-1.9v-0.7h0c-0.6,1.6-2.4,2.9-4.9,2.9c-2.5,0-4.4-0.9-4.4-3.7
		c0-3.1,2.7-3.7,4.8-3.9c4.4-0.3,4.5-0.6,4.5-2.7c0-0.6-0.7-2.6-3.7-2.6c-2.4,0-3.9,1.2-4,3.5h-1c0.1-2.9,1.9-4.4,5-4.4
		c2.3,0,4.6,0.7,4.6,3.4V67.6z M166.2,62.5c-0.8,0.9-2.9,0.8-4.8,1c-2.3,0.3-3.6,1.1-3.6,3c0,1.6,1.2,2.9,3.5,2.9
		c4.4,0,4.9-3.8,4.9-4.5V62.5z M180.4,67.2L180.4,67.2c-1.1,2.1-2.7,3.1-5.1,3.1c-4,0-5.7-3.2-5.7-6.9c0-3.9,1.9-6.9,5.9-6.9
		c2.2,0,4.2,1.2,4.9,3.3h0.1v-8.1h1V70h-1V67.2z M180.4,63.4c0-3.1-1.5-6.1-4.9-6.1c-3.5,0-4.9,2.9-4.9,6.1c0,3.1,1.5,6,4.9,6
		C178.9,69.5,180.4,66.5,180.4,63.4z M182.9,56.8h1.2l4.9,12l4.5-12h1.1l-5.6,14.6c-0.5,1.3-1,2.3-1.5,2.7c-0.7,0.5-1.6,0.6-3.1,0.6
		v-0.8c1.4,0,2.1-0.2,2.7-0.8c0.4-0.4,0.7-1.4,1.4-3.1L182.9,56.8z M197.1,70v-2.6h1.3V70H197.1z M198.4,51.7v6.2l-0.3,7.4h-0.6
		l-0.3-7.4v-6.2H198.4z"/>
</g>
</svg>
