<?xml version="1.0" encoding="utf-8"?>
<!-- Generator: Adobe Illustrator 17.1.0, SVG Export Plug-In . SVG Version: 6.00 Build 0)  -->
<!DOCTYPE svg PUBLIC "-//W3C//DTD SVG 1.0//EN" "http://www.w3.org/TR/2001/REC-SVG-20010904/DTD/svg10.dtd">
<svg version="1.0" id="Layer_1" xmlns="http://www.w3.org/2000/svg" xmlns:xlink="http://www.w3.org/1999/xlink" x="0px" y="0px"
	 viewBox="0 0 66 17" enable-background="new 0 0 66 17" xml:space="preserve">
<linearGradient id="SVGID_1_" gradientUnits="userSpaceOnUse" x1="33" y1="0.6158" x2="33" y2="16.3842">
	<stop  offset="0" style="stop-color:#E71E25"/>
	<stop  offset="0.3463" style="stop-color:#B51B20"/>
	<stop  offset="0.5174" style="stop-color:#EE2725"/>
	<stop  offset="0.6535" style="stop-color:#8E1619"/>
	<stop  offset="1" style="stop-color:#680C0D"/>
</linearGradient>
<path fill="url(#SVGID_1_)" d="M0.8,0.6h4v5.7h2.5V0.6h4v15.5h-4V9.7H4.8v6.4h-4V0.6z M17.1,0.6v11.2c0,1.5,0.5,1.9,1.2,1.9
	c0.8,0,1.2-0.4,1.2-1.9V0.6h4v10.1c0,4.3-1.9,5.6-5.2,5.6c-3.4,0-5.2-1.3-5.2-5.6V0.6H17.1z M25.3,0.6h6.3c3.1,0,4.2,1.7,4.2,4.1
	c0,2.1-0.8,3.4-2.6,3.7v0c1.9,0.2,2.5,1.4,2.5,3.5v1.3c0,0.8,0,1.8,0.2,2.1c0.1,0.2,0.2,0.3,0.5,0.5v0.2h-4.3
	c-0.4-0.8-0.4-2.3-0.4-2.9v-1c0-1.8-0.3-2.2-1.3-2.2h-1.1v6.2h-4V0.6z M29.3,7.2h0.8c1.1,0,1.7-0.7,1.7-1.8c0-1.3-0.5-1.8-1.7-1.8
	h-0.8V7.2z M37.7,0.6H44c3.1,0,4.2,1.7,4.2,4.1c0,2.1-0.8,3.4-2.6,3.7v0c1.9,0.2,2.5,1.4,2.5,3.5v1.3c0,0.8,0,1.8,0.2,2.1
	c0.1,0.2,0.2,0.3,0.5,0.5v0.2h-4.3c-0.4-0.8-0.4-2.3-0.4-2.9v-1c0-1.8-0.3-2.2-1.3-2.2h-1.1v6.2h-4V0.6z M41.7,7.2h0.8
	c1.1,0,1.7-0.7,1.7-1.8c0-1.3-0.5-1.8-1.7-1.8h-0.8V7.2z M52.3,10l-3.9-9.4h4.4L54.3,6h0l1.5-5.4h4.4L56.3,10v6.1h-4V10z M61.4,5.8
	V0.6h3.8v5.2l-0.5,5.8h-2.9L61.4,5.8z M61.5,12.7h3.6v3.4h-3.6V12.7z"/>
</svg>
