<?xml version="1.0" encoding="utf-8"?>
<!-- Generator: Adobe Illustrator 17.1.0, SVG Export Plug-In . SVG Version: 6.00 Build 0)  -->
<!DOCTYPE svg PUBLIC "-//W3C//DTD SVG 1.0//EN" "http://www.w3.org/TR/2001/REC-SVG-20010904/DTD/svg10.dtd">
<svg version="1.0" id="Layer_1" xmlns="http://www.w3.org/2000/svg" xmlns:xlink="http://www.w3.org/1999/xlink" x="0px" y="0px"
	 viewBox="0 0 394 107" enable-background="new 0 0 394 107" xml:space="preserve">
<g>
	<g>
		<path fill="#00AEEF" d="M0.3,1.5h3.1v50.3H0.3V1.5z"/>
		<path fill="#00AEEF" d="M12.2,1.5h3.9l31.8,46.1H48V1.5h3.1v50.3h-3.7l-32-46.5h-0.1v46.5h-3.1V1.5z"/>
		<path fill="#00AEEF" d="M118.7,16.5C117.4,8,110,3,101.6,3C88.4,3,80.7,13.8,80.7,26.6s7.7,23.7,20.8,23.7c9.8,0,17.4-8.7,18-18.1
			h3.1c-1.1,12-10,20.8-21.1,20.8c-15.1,0-23.9-11.6-23.9-26.3s8.9-26.3,23.9-26.3c17.8,0,20.1,15.5,20.2,16.2H118.7z"/>
		<path fill="#00AEEF" d="M150.8,53c-15.1,0-23.9-11.6-23.9-26.3s8.9-26.3,23.9-26.3c15,0,23.9,11.6,23.9,26.3S165.8,53,150.8,53z
			 M150.8,50.3c13.1,0,20.8-10.8,20.8-23.7S163.9,3,150.8,3C137.6,3,130,13.8,130,26.6S137.6,50.3,150.8,50.3z"/>
		<path fill="#00AEEF" d="M181.3,1.5h3.9l31.8,46.1h0.1V1.5h3.1v50.3h-3.7l-32-46.5h-0.1v46.5h-3.1V1.5z"/>
		<path fill="#00AEEF" d="M223.6,4.2V1.5h38.5v2.7h-17.7v47.6h-3.1V4.2H223.6z"/>
		<path fill="#00AEEF" d="M265.6,1.5h21c8.8,0,15.9,3.2,15.9,13c0,6.8-4.1,11.8-10.8,12.9v0.1c7.5,0.8,9.3,5.6,9.8,10.8
			c0.5,5.2-0.4,10.8,1.7,13.5h-3.5c-1.9-3.5-0.8-9.2-1.3-14.1c-0.6-4.9-3-8.8-11.8-8.8h-17.9v22.9h-3.1V1.5z M286.6,26.2
			c7.3,0,12.8-3.5,12.8-11.5c0-7.6-6.1-10.5-12.8-10.5h-17.9v22H286.6z"/>
		<path fill="#00AEEF" d="M331.6,53c-15.1,0-23.9-11.6-23.9-26.3s8.9-26.3,23.9-26.3c15,0,23.9,11.6,23.9,26.3S346.6,53,331.6,53z
			 M331.6,50.3c13.1,0,20.8-10.8,20.8-23.7S344.7,3,331.6,3c-13.2,0-20.8,10.8-20.8,23.7S318.5,50.3,331.6,50.3z"/>
		<path fill="#00AEEF" d="M362.1,1.5h3.1v47.6h28.5v2.7h-31.6V1.5z"/>
	</g>
	<g opacity="0.1">
		<linearGradient id="SVGID_1_" gradientUnits="userSpaceOnUse" x1="1.8115" y1="55.1724" x2="1.8115" y2="105.4517">
			<stop  offset="0" style="stop-color:#53C9EE"/>
			<stop  offset="1" style="stop-color:#0361AB;stop-opacity:0"/>
		</linearGradient>
		<path fill="url(#SVGID_1_)" d="M0.3,55.2h3.1v50.3H0.3V55.2z"/>
		<linearGradient id="SVGID_2_" gradientUnits="userSpaceOnUse" x1="31.6685" y1="55.1724" x2="31.6685" y2="105.4517">
			<stop  offset="0" style="stop-color:#53C9EE"/>
			<stop  offset="1" style="stop-color:#0361AB;stop-opacity:0"/>
		</linearGradient>
		<path fill="url(#SVGID_2_)" d="M12.2,55.2h3.1v46.5h0.1l32-46.5h3.7v50.3H48V59.3h-0.1l-31.8,46.1h-3.9V55.2z"/>
		<linearGradient id="SVGID_3_" gradientUnits="userSpaceOnUse" x1="100.1462" y1="53.9751" x2="100.1462" y2="106.6489">
			<stop  offset="0" style="stop-color:#53C9EE"/>
			<stop  offset="1" style="stop-color:#0361AB;stop-opacity:0"/>
		</linearGradient>
		<path fill="url(#SVGID_3_)" d="M121.8,90.5c-0.1,0.7-2.4,16.2-20.2,16.2c-15.1,0-23.9-11.6-23.9-26.3S86.5,54,101.6,54
			c11.1,0,19.9,8.8,21.1,20.8h-3.1c-0.6-9.4-8.2-18.1-18-18.1c-13.2,0-20.8,10.8-20.8,23.7s7.7,23.7,20.8,23.7
			c8.4,0,15.8-5.1,17.1-13.5H121.8z"/>
		<linearGradient id="SVGID_4_" gradientUnits="userSpaceOnUse" x1="150.7737" y1="53.9751" x2="150.7737" y2="106.6489">
			<stop  offset="0" style="stop-color:#53C9EE"/>
			<stop  offset="1" style="stop-color:#0361AB;stop-opacity:0"/>
		</linearGradient>
		<path fill="url(#SVGID_4_)" d="M174.7,80.3c0,14.7-8.9,26.3-23.9,26.3c-15.1,0-23.9-11.6-23.9-26.3S135.7,54,150.8,54
			C165.8,54,174.7,65.6,174.7,80.3z M130,80.3c0,12.9,7.7,23.7,20.8,23.7c13.1,0,20.8-10.8,20.8-23.7s-7.7-23.7-20.8-23.7
			C137.6,56.7,130,67.4,130,80.3z"/>
		<linearGradient id="SVGID_5_" gradientUnits="userSpaceOnUse" x1="200.7324" y1="55.1724" x2="200.7324" y2="105.4517">
			<stop  offset="0" style="stop-color:#53C9EE"/>
			<stop  offset="1" style="stop-color:#0361AB;stop-opacity:0"/>
		</linearGradient>
		<path fill="url(#SVGID_5_)" d="M181.3,55.2h3.1v46.5h0.1l32-46.5h3.7v50.3h-3.1V59.3h-0.1l-31.8,46.1h-3.9V55.2z"/>
		<linearGradient id="SVGID_6_" gradientUnits="userSpaceOnUse" x1="242.8743" y1="55.1724" x2="242.8743" y2="105.4517">
			<stop  offset="0" style="stop-color:#53C9EE"/>
			<stop  offset="1" style="stop-color:#0361AB;stop-opacity:0"/>
		</linearGradient>
		<path fill="url(#SVGID_6_)" d="M241.3,102.8V55.2h3.1v47.6h17.7v2.7h-38.5v-2.7H241.3z"/>
		<linearGradient id="SVGID_7_" gradientUnits="userSpaceOnUse" x1="284.384" y1="55.1724" x2="284.384" y2="105.4517">
			<stop  offset="0" style="stop-color:#53C9EE"/>
			<stop  offset="1" style="stop-color:#0361AB;stop-opacity:0"/>
		</linearGradient>
		<path fill="url(#SVGID_7_)" d="M265.6,55.2h3.1v22.9h17.9c8.8,0,11.2-3.9,11.8-8.8c0.6-4.9-0.6-10.6,1.3-14.1h3.5
			c-2,2.7-1.2,8.3-1.7,13.5c-0.5,5.2-2.3,9.9-9.8,10.8v0.1c6.7,1.1,10.8,6.1,10.8,12.9c0,9.7-7.1,13-15.9,13h-21V55.2z M268.7,80.7
			v22h17.9c6.8,0,12.8-2.9,12.8-10.5c0-8.1-5.5-11.5-12.8-11.5H268.7z"/>
		<linearGradient id="SVGID_8_" gradientUnits="userSpaceOnUse" x1="331.5964" y1="53.9751" x2="331.5964" y2="106.6489">
			<stop  offset="0" style="stop-color:#53C9EE"/>
			<stop  offset="1" style="stop-color:#0361AB;stop-opacity:0"/>
		</linearGradient>
		<path fill="url(#SVGID_8_)" d="M355.5,80.3c0,14.7-8.9,26.3-23.9,26.3c-15.1,0-23.9-11.6-23.9-26.3S316.6,54,331.6,54
			C346.6,54,355.5,65.6,355.5,80.3z M310.8,80.3c0,12.9,7.7,23.7,20.8,23.7c13.1,0,20.8-10.8,20.8-23.7s-7.7-23.7-20.8-23.7
			C318.5,56.7,310.8,67.4,310.8,80.3z"/>
		<linearGradient id="SVGID_9_" gradientUnits="userSpaceOnUse" x1="377.9285" y1="55.1724" x2="377.9285" y2="105.4517">
			<stop  offset="0" style="stop-color:#53C9EE"/>
			<stop  offset="1" style="stop-color:#0361AB;stop-opacity:0"/>
		</linearGradient>
		<path fill="url(#SVGID_9_)" d="M362.1,55.2h31.6v2.7h-28.5v47.6h-3.1V55.2z"/>
	</g>
</g>
</svg>
