<?xml version="1.0" encoding="utf-8"?>
<!-- Generator: Adobe Illustrator 17.1.0, SVG Export Plug-In . SVG Version: 6.00 Build 0)  -->
<!DOCTYPE svg PUBLIC "-//W3C//DTD SVG 1.0//EN" "http://www.w3.org/TR/2001/REC-SVG-20010904/DTD/svg10.dtd">
<svg version="1.0" id="Layer_1" xmlns="http://www.w3.org/2000/svg" xmlns:xlink="http://www.w3.org/1999/xlink" x="0px" y="0px"
	 viewBox="0 0 66 17" enable-background="new 0 0 66 17" xml:space="preserve">
<linearGradient id="SVGID_1_" gradientUnits="userSpaceOnUse" x1="33" y1="0.4647" x2="33" y2="16.5353">
	<stop  offset="0" style="stop-color:#FCB12A"/>
	<stop  offset="0.2561" style="stop-color:#D19A2A"/>
	<stop  offset="0.5501" style="stop-color:#FFFFFF"/>
	<stop  offset="0.724" style="stop-color:#E9A422"/>
</linearGradient>
<path fill="url(#SVGID_1_)" d="M0.4,0.8h6.1c2.9,0,4.2,1.5,4.2,3.9c0,1.6-0.7,3.1-2.4,3.5v0c2,0.2,2.9,1.9,2.9,3.5
	c0,2.7-1.3,4.6-4.7,4.6H0.4V0.8z M4.4,6.8h1c0.8,0,1.3-0.7,1.3-1.6c0-0.9-0.5-1.6-1.3-1.6h-1V6.8z M4.4,13.3h1.1
	c0.7,0,1.4-0.6,1.4-1.9c0-1.2-0.7-1.9-1.4-1.9H4.4V13.3z M17.8,0.5c4.1,0,5.5,2.3,5.5,8c0,5.8-1.4,8-5.5,8c-4.1,0-5.5-2.3-5.5-8
	C12.3,2.7,13.7,0.5,17.8,0.5z M17.8,13.8c1.2,0,1.4-1.1,1.4-5.3S19,3.2,17.8,3.2c-1.2,0-1.4,1.1-1.4,5.3S16.5,13.8,17.8,13.8z
	 M24.8,0.8h4.5l2.6,9.5h0V0.8h3.8v15.5h-4.4l-2.7-9.6h0v9.6h-3.8V0.8z M41.4,0.8v11.2c0,1.5,0.5,1.9,1.2,1.9c0.8,0,1.2-0.4,1.2-1.9
	V0.8h4v10.1c0,4.3-1.9,5.6-5.2,5.6c-3.4,0-5.2-1.3-5.2-5.6V0.8H41.4z M55.7,5.2V4.9c0-0.9-0.4-1.7-1.1-1.7c-0.9,0-1.3,0.7-1.3,1.4
	c0,3.1,6.6,1.6,6.6,7.2c0,3.3-1.9,4.8-5.5,4.8c-3.3,0-5.2-1.1-5.2-4.4v-0.5h3.9V12c0,1.3,0.5,1.8,1.3,1.8c0.8,0,1.3-0.6,1.3-1.5
	c0-3.1-6.3-1.5-6.3-7c0-3.1,1.7-4.8,5.1-4.8c3.5,0,5,1.5,5,4.8H55.7z M61.8,5.9V0.8h3.8v5.2l-0.5,5.8h-2.9L61.8,5.9z M61.9,12.8h3.6
	v3.4h-3.6V12.8z"/>
</svg>
