<?xml version="1.0" encoding="utf-8"?>
<!-- Generator: Adobe Illustrator 17.1.0, SVG Export Plug-In . SVG Version: 6.00 Build 0)  -->
<!DOCTYPE svg PUBLIC "-//W3C//DTD SVG 1.0//EN" "http://www.w3.org/TR/2001/REC-SVG-20010904/DTD/svg10.dtd">
<svg version="1.0" id="Layer_1" xmlns="http://www.w3.org/2000/svg" xmlns:xlink="http://www.w3.org/1999/xlink" x="0px" y="0px"
	 viewBox="0 0 279 125" enable-background="new 0 0 279 125" xml:space="preserve">
<linearGradient id="SVGID_1_" gradientUnits="userSpaceOnUse" x1="139.2677" y1="-4.299103e-02" x2="139.2677" y2="125.2639">
	<stop  offset="0" style="stop-color:#00AEEF"/>
	<stop  offset="0.2561" style="stop-color:#27AAE1"/>
	<stop  offset="0.5501" style="stop-color:#FFFFFF"/>
	<stop  offset="0.724" style="stop-color:#00AEEF"/>
</linearGradient>
<rect x="0.3" y="0.5" stroke="url(#SVGID_1_)" stroke-miterlimit="10" width="278" height="124.3"/>
<linearGradient id="SVGID_2_" gradientUnits="userSpaceOnUse" x1="141.2481" y1="50.9057" x2="141.2481" y2="74.3153">
	<stop  offset="0" style="stop-color:#A7A9AC"/>
	<stop  offset="1" style="stop-color:#58595B"/>
</linearGradient>
<path fill="url(#SVGID_2_)" d="M57.1,51.3h1.1v17.3h10.4v1H57.1V51.3z M70.1,63.2c-0.1,3.1,1.6,5.9,4.8,5.9c2.5,0,4.2-1.5,4.7-3.9h1
	c-0.5,3.1-2.6,4.8-5.7,4.8c-3.8,0-5.9-3-5.8-6.7c-0.1-3.6,1.8-7.1,5.8-7.1c4.1,0,6,3.2,5.8,7H70.1z M79.8,62.3
	C79.7,59.6,78,57,75,57c-2.9,0-4.6,2.7-4.8,5.3H79.8z M88,69.6h-1.2l-5.3-13.2h1.1l4.8,12h0.1l4.5-12H93L88,69.6z M94.8,63.2
	c-0.1,3.1,1.6,5.9,4.8,5.9c2.5,0,4.2-1.5,4.7-3.9h1c-0.5,3.1-2.6,4.8-5.7,4.8c-3.8,0-5.9-3-5.8-6.7c-0.1-3.6,1.8-7.1,5.8-7.1
	c4.1,0,6,3.2,5.8,7H94.8z M104.4,62.3c-0.1-2.8-1.8-5.3-4.8-5.3c-2.9,0-4.6,2.7-4.8,5.3H104.4z M108.8,51.3v18.3h-1V51.3H108.8z
	 M133.5,56.8c-0.5-3.1-3.2-4.9-6.2-4.9c-4.8,0-7.6,3.9-7.6,8.6s2.8,8.6,7.6,8.6c3.6,0,6.3-3.2,6.5-6.6h1.1c-0.4,4.4-3.6,7.5-7.7,7.5
	c-5.5,0-8.7-4.2-8.7-9.6s3.2-9.6,8.7-9.6c6.5,0,7.3,5.6,7.3,5.9H133.5z M142.5,56.1c3.9,0,6,3.1,6,6.9c0,3.7-2.2,6.9-6,6.9
	c-3.9,0-6-3.1-6-6.9C136.4,59.3,138.6,56.1,142.5,56.1z M142.5,69.1c3.3,0,5.1-2.9,5.1-6c0-3.1-1.8-6-5.1-6c-3.3,0-5.1,2.9-5.1,6
	C137.4,66.2,139.2,69.1,142.5,69.1z M150.8,56.5h1v2.7h0.1c0.4-1.7,2.1-3,4.1-3c2.5,0,3.7,1.4,4,2.8h0.1c0.8-1.8,2-2.8,4.2-2.8
	c2.4,0,4.1,1.4,4.1,4.5v9h-1v-9c0-3.4-2.4-3.6-3.1-3.6c-2.4,0-4.1,1.7-4.1,4.8v7.8h-1v-9c0-3.3-2.3-3.6-3.1-3.6
	c-1.9,0-4.2,1.5-4.2,4.8v7.8h-1V56.5z M172.3,59.5L172.3,59.5c0.5-1.3,1.9-3.3,4.8-3.3c4,0,5.9,3.2,5.9,6.9c0,4-1.9,6.9-5.9,6.9
	c-2.2,0-4-0.9-4.8-3h-0.1v7.4h-1V56.5h1V59.5z M182.1,63.1c0-3-1.4-6.1-4.9-6.1c-3.5,0-4.8,2.9-4.8,6.1c0,3.1,1.1,6,4.8,6
	C180.6,69.1,182.1,66.3,182.1,63.1z M186.6,51.3v18.3h-1V51.3H186.6z M190,63.2c-0.1,3.1,1.6,5.9,4.8,5.9c2.5,0,4.2-1.5,4.7-3.9h1
	c-0.5,3.1-2.6,4.8-5.7,4.8c-3.8,0-5.9-3-5.8-6.7c-0.1-3.6,1.8-7.1,5.8-7.1c4.1,0,6,3.2,5.8,7H190z M199.7,62.3
	c-0.1-2.8-1.8-5.3-4.8-5.3c-2.9,0-4.6,2.7-4.8,5.3H199.7z M207.8,57.3h-2.9v9.2c0,2.1,1,2.3,2.8,2.3v0.8c-2,0.1-3.9-0.2-3.8-3.1
	v-9.2h-2.4v-0.8h2.4v-4.1h1v4.1h2.9V57.3z M209.9,63.2c-0.1,3.1,1.6,5.9,4.8,5.9c2.5,0,4.2-1.5,4.7-3.9h1c-0.5,3.1-2.6,4.8-5.7,4.8
	c-3.8,0-5.9-3-5.8-6.7c-0.1-3.6,1.8-7.1,5.8-7.1c4.1,0,6,3.2,5.8,7H209.9z M219.6,62.3c-0.1-2.8-1.8-5.3-4.8-5.3
	c-2.9,0-4.6,2.7-4.8,5.3H219.6z M224,69.6V67h1.3v2.6H224z M225.3,51.3v6.2l-0.3,7.4h-0.6l-0.3-7.4v-6.2H225.3z"/>
</svg>
