<?xml version="1.0" encoding="utf-8"?>
<!-- Generator: Adobe Illustrator 17.1.0, SVG Export Plug-In . SVG Version: 6.00 Build 0)  -->
<!DOCTYPE svg PUBLIC "-//W3C//DTD SVG 1.0//EN" "http://www.w3.org/TR/2001/REC-SVG-20010904/DTD/svg10.dtd">
<svg version="1.0" id="Layer_1" xmlns="http://www.w3.org/2000/svg" xmlns:xlink="http://www.w3.org/1999/xlink" x="0px" y="0px"
	 viewBox="0 0 283 27" enable-background="new 0 0 283 27" xml:space="preserve">
<linearGradient id="SVGID_1_" gradientUnits="userSpaceOnUse" x1="141.5" y1="0.9745" x2="141.5" y2="26.0255">
	<stop  offset="0" style="stop-color:#00AEEF"/>
	<stop  offset="0.2561" style="stop-color:#27AAE1"/>
	<stop  offset="0.5501" style="stop-color:#FFFFFF"/>
	<stop  offset="0.724" style="stop-color:#00AEEF"/>
</linearGradient>
<path fill="url(#SVGID_1_)" d="M0.5,2.8V1.5h18.3v1.3h-8.4v22.6H8.9V2.8H0.5z M20.5,1.5h10c4.2,0,7.6,1.5,7.6,6.2
	c0,3.2-1.9,5.6-5.1,6.1v0.1c3.6,0.4,4.4,2.6,4.7,5.1s-0.2,5.2,0.8,6.4h-1.6c-0.9-1.6-0.4-4.4-0.6-6.7c-0.3-2.3-1.4-4.2-5.6-4.2h-8.5
	v10.9h-1.5V1.5z M30.4,13.3c3.5,0,6.1-1.6,6.1-5.5c0-3.6-2.9-5-6.1-5h-8.5v10.5H30.4z M41.6,1.5H43v23.9h-1.5V1.5z M54.4,24.2
	L54.4,24.2l8.3-22.6h1.5l-8.9,23.9h-1.7L44.7,1.5h1.5L54.4,24.2z M65.9,1.5h1.5v23.9h-1.5V1.5z M80.2,1.5l9.4,23.9h-1.6l-3-7.7H73.7
	l-3,7.7H69l9.6-23.9H80.2z M84.6,16.5L79.5,3h-0.1l-5.3,13.5H84.6z M119.3,8.7c-0.6-4-4.2-6.4-8.1-6.4c-6.3,0-9.9,5.1-9.9,11.3
	c0,6.1,3.6,11.3,9.9,11.3c4.7,0,8.3-4.2,8.5-8.6h1.5c-0.5,5.7-4.8,9.9-10,9.9c-7.2,0-11.4-5.5-11.4-12.5c0-7,4.2-12.5,11.4-12.5
	c8.5,0,9.6,7.4,9.6,7.7H119.3z M125.7,13.7v11.8h-1.5V1.5h1.5v10.9H141V1.5h1.5v23.9H141V13.7H125.7z M155.4,1.5l9.4,23.9h-1.6
	l-3-7.7h-11.5l-3,7.7h-1.6l9.6-23.9H155.4z M159.8,16.5L154.7,3h-0.1l-5.3,13.5H159.8z M166.5,1.5h1.5v22.6h13.6v1.3h-15V1.5z
	 M183.3,1.5h1.5v22.6h13.6v1.3h-15V1.5z M216.2,24.2v1.3H200V1.5h16.1v1.3h-14.6v9.6h13.7v1.3h-13.7v10.5H216.2z M218.7,1.5h1.8
	l15.1,21.9h0.1V1.5h1.5v23.9h-1.7L220.3,3.4h-0.1v22.1h-1.5V1.5z M262.2,13.7v11.7h-1.3v-5.1h-0.1c-1.2,3.5-4.8,5.7-9,5.7
	c-7.2,0-11.3-5.5-11.3-12.4c0-6.8,4.1-12.7,11.3-12.7c4.9,0,9.1,3,9.9,8h-1.4c-1.1-4.1-4.2-6.7-8.5-6.7c-6.5,0-9.8,5.4-9.8,11.4
	c0,6.1,3.3,11.1,9.8,11.1c5.7,0,9.3-3.9,9-9.7h-8.8v-1.3H262.2z M282.5,24.2v1.3h-16.2V1.5h16.1v1.3h-14.6v9.6h13.7v1.3h-13.7v10.5
	H282.5z"/>
</svg>
