<?xml version="1.0" encoding="utf-8"?>
<!-- Generator: Adobe Illustrator 17.1.0, SVG Export Plug-In . SVG Version: 6.00 Build 0)  -->
<!DOCTYPE svg PUBLIC "-//W3C//DTD SVG 1.1//EN" "http://www.w3.org/Graphics/SVG/1.1/DTD/svg11.dtd">
<svg version="1.1" id="Layer_1" xmlns="http://www.w3.org/2000/svg" xmlns:xlink="http://www.w3.org/1999/xlink" x="0px" y="0px"
	 viewBox="0 0 1000 1000" enable-background="new 0 0 1000 1000" xml:space="preserve">
<linearGradient id="SVGID_1_" gradientUnits="userSpaceOnUse" x1="33" y1="1074.0303" x2="33" y2="1058.2618" gradientTransform="matrix(15.1515 0 0 -15.1515 0 16279.3281)">
	<stop  offset="0" style="stop-color:#E71E25"/>
	<stop  offset="0.3463" style="stop-color:#B51B20"/>
	<stop  offset="0.5174" style="stop-color:#EE2725"/>
	<stop  offset="0.6535" style="stop-color:#8E1619"/>
	<stop  offset="1" style="stop-color:#680C0D"/>
</linearGradient>
<path fill="url(#SVGID_1_)" d="M12.1,5.8h60.6v86.4h37.9V5.8h60.6v234.8h-60.6v-97H72.7v97H12.1C12.1,240.8,12.1,5.8,12.1,5.8z
	 M259.1,5.8v169.7c0,22.7,7.6,28.8,18.2,28.8c12.1,0,18.2-6.1,18.2-28.8V5.8h60.6v153c0,65.2-28.8,84.8-78.8,84.8
	c-51.5,0-78.8-19.7-78.8-84.8V5.8H259.1z M383.3,5.8h95.5c47,0,63.6,25.8,63.6,62.1c0,31.8-12.1,51.5-39.4,56.1l0,0
	c28.8,3,37.9,21.2,37.9,53v19.7c0,12.1,0,27.3,3,31.8c1.5,3,3,4.5,7.6,7.6v3h-65.2c-6.1-12.1-6.1-34.8-6.1-43.9V180
	c0-27.3-4.5-33.3-19.7-33.3h-16.7v93.9h-60.6L383.3,5.8L383.3,5.8z M443.9,105.8H456c16.7,0,25.8-10.6,25.8-27.3
	c0-19.7-7.6-27.3-25.8-27.3h-12.1V105.8z M571.2,5.8h95.5c47,0,63.6,25.8,63.6,62.1c0,31.8-12.1,51.5-39.4,56.1l0,0
	c28.8,3,37.9,21.2,37.9,53v19.7c0,12.1,0,27.3,3,31.8c1.5,3,3,4.5,7.6,7.6v3h-65.2c-6.1-12.1-6.1-34.8-6.1-43.9V180
	c0-27.3-4.5-33.3-19.7-33.3h-16.7v93.9h-60.6L571.2,5.8L571.2,5.8z M631.8,105.8h12.1c16.7,0,25.8-10.6,25.8-27.3
	c0-19.7-7.6-27.3-25.8-27.3h-12.1V105.8z M792.4,148.3L733.3,6H800l22.7,81.8l0,0L845.4,6h66.7L853,148.3v92.4h-60.6V148.3z
	 M930.3,84.6V5.8h57.6v78.8l-7.6,87.9h-43.9L930.3,84.6z M931.8,189.1h54.5v51.5h-54.5V189.1z"/>
</svg>
