<?xml version="1.0" encoding="utf-8"?>
<!-- Generator: Adobe Illustrator 17.1.0, SVG Export Plug-In . SVG Version: 6.00 Build 0)  -->
<!DOCTYPE svg PUBLIC "-//W3C//DTD SVG 1.1//EN" "http://www.w3.org/Graphics/SVG/1.1/DTD/svg11.dtd">
<svg version="1.1" id="Layer_1" xmlns="http://www.w3.org/2000/svg" xmlns:xlink="http://www.w3.org/1999/xlink" x="0px" y="0px"
	 viewBox="0 0 221.8 82.2" enable-background="new 0 0 221.8 82.2" xml:space="preserve">
<g>
	<linearGradient id="SVGID_1_" gradientUnits="userSpaceOnUse" x1="28.7839" y1="0.7236" x2="28.7839" y2="79.5039">
		<stop  offset="0" style="stop-color:#44AEE3"/>
		<stop  offset="0.3379" style="stop-color:#386FA7"/>
		<stop  offset="0.5181" style="stop-color:#1390CF"/>
		<stop  offset="0.6988" style="stop-color:#325C97"/>
		<stop  offset="1" style="stop-color:#282973"/>
	</linearGradient>
	<path fill="url(#SVGID_1_)" d="M-1.4,4.9V0.7H59v4.2H31.2v74.6h-4.9V4.9H-1.4z"/>
	<linearGradient id="SVGID_2_" gradientUnits="userSpaceOnUse" x1="66.5764" y1="22.4369" x2="66.5764" y2="79.5039">
		<stop  offset="0" style="stop-color:#44AEE3"/>
		<stop  offset="0.3379" style="stop-color:#386FA7"/>
		<stop  offset="0.5181" style="stop-color:#1390CF"/>
		<stop  offset="0.6988" style="stop-color:#325C97"/>
		<stop  offset="1" style="stop-color:#282973"/>
	</linearGradient>
	<path fill="url(#SVGID_2_)" d="M57.6,35.4H58C60.2,28,69.4,22,79.7,22.5v4.2c-4.4-0.6-10.6,0.6-15.7,5.5c-4.2,4.3-6,7.8-6.4,16.3
		v31h-4.2V22.8h4.2V35.4z"/>
	<linearGradient id="SVGID_3_" gradientUnits="userSpaceOnUse" x1="87.2107" y1="0.7236" x2="87.2107" y2="79.5039">
		<stop  offset="0" style="stop-color:#44AEE3"/>
		<stop  offset="0.3379" style="stop-color:#386FA7"/>
		<stop  offset="0.5181" style="stop-color:#1390CF"/>
		<stop  offset="0.6988" style="stop-color:#325C97"/>
		<stop  offset="1" style="stop-color:#282973"/>
	</linearGradient>
	<path fill="url(#SVGID_3_)" d="M85.1,12.1V0.7h4.2v11.4H85.1z M85.1,79.5V22.8h4.2v56.7H85.1z"/>
	<linearGradient id="SVGID_4_" gradientUnits="userSpaceOnUse" x1="120.9741" y1="22.791" x2="120.9741" y2="79.5039">
		<stop  offset="0" style="stop-color:#44AEE3"/>
		<stop  offset="0.3379" style="stop-color:#386FA7"/>
		<stop  offset="0.5181" style="stop-color:#1390CF"/>
		<stop  offset="0.6988" style="stop-color:#325C97"/>
		<stop  offset="1" style="stop-color:#282973"/>
	</linearGradient>
	<path fill="url(#SVGID_4_)" d="M124.3,79.5h-5.2L96.3,22.8h4.9l20.5,51.9h0.2l19.2-51.9h4.6L124.3,79.5z"/>
	<linearGradient id="SVGID_5_" gradientUnits="userSpaceOnUse" x1="154.7375" y1="0.7236" x2="154.7375" y2="79.5039">
		<stop  offset="0" style="stop-color:#44AEE3"/>
		<stop  offset="0.3379" style="stop-color:#386FA7"/>
		<stop  offset="0.5181" style="stop-color:#1390CF"/>
		<stop  offset="0.6988" style="stop-color:#325C97"/>
		<stop  offset="1" style="stop-color:#282973"/>
	</linearGradient>
	<path fill="url(#SVGID_5_)" d="M152.6,12.1V0.7h4.2v11.4H152.6z M152.6,79.5V22.8h4.2v56.7H152.6z"/>
	<linearGradient id="SVGID_6_" gradientUnits="userSpaceOnUse" x1="193.1902" y1="21.4668" x2="193.1902" y2="80.8281">
		<stop  offset="0" style="stop-color:#44AEE3"/>
		<stop  offset="0.3379" style="stop-color:#386FA7"/>
		<stop  offset="0.5181" style="stop-color:#1390CF"/>
		<stop  offset="0.6988" style="stop-color:#325C97"/>
		<stop  offset="1" style="stop-color:#282973"/>
	</linearGradient>
	<path fill="url(#SVGID_6_)" d="M212,69c0,3.3,0,6.8,3.8,6.8c0.8,0,1.8-0.1,3.1-0.3v3.5c-1.2,0.2-2.3,0.4-3.4,0.4
		c-6.6,0-7.6-3.6-7.6-8.3v-3h-0.2c-2.6,6.7-10.3,12.6-21.1,12.6c-10.7,0-19-4.1-19-16c0-13.2,11.5-16,20.9-16.8
		c18.8-1.3,19.5-2.5,19.5-11.8c0-2.5-2.9-11.1-15.8-11.1c-10.2,0-16.9,5.3-17.4,15.1h-4.2c0.6-12.5,8.3-18.8,21.6-18.8
		c9.9,0,19.9,3.1,19.9,14.8V69z M207.8,47.3c-3.3,3.8-12.4,3.3-20.5,4.4c-9.9,1.1-15.6,4.6-15.6,13.1c0,6.8,5,12.4,14.9,12.4
		c19.1,0,21.2-16.3,21.2-19.3V47.3z"/>
</g>
</svg>
