<?xml version="1.0" encoding="utf-8"?>
<!-- Generator: Adobe Illustrator 17.1.0, SVG Export Plug-In . SVG Version: 6.00 Build 0)  -->
<!DOCTYPE svg PUBLIC "-//W3C//DTD SVG 1.0//EN" "http://www.w3.org/TR/2001/REC-SVG-20010904/DTD/svg10.dtd">
<svg version="1.0" id="Layer_1" xmlns="http://www.w3.org/2000/svg" xmlns:xlink="http://www.w3.org/1999/xlink" x="0px" y="0px"
	 viewBox="0 0 181 26" enable-background="new 0 0 181 26" xml:space="preserve">
<linearGradient id="SVGID_1_" gradientUnits="userSpaceOnUse" x1="90.5" y1="0.4736" x2="90.5" y2="25.5264">
	<stop  offset="0" style="stop-color:#00AEEF"/>
	<stop  offset="0.2561" style="stop-color:#27AAE1"/>
	<stop  offset="0.5501" style="stop-color:#FFFFFF"/>
	<stop  offset="0.724" style="stop-color:#00AEEF"/>
</linearGradient>
<path fill="url(#SVGID_1_)" d="M21.7,13.2V25h-1.3v-5.1h-0.1c-1.2,3.5-4.8,5.7-9,5.7C4.1,25.5,0.1,20,0.1,13.1
	c0-6.8,4.1-12.7,11.3-12.7c4.9,0,9.1,3,9.9,8h-1.4c-1.1-4.1-4.2-6.7-8.5-6.7c-6.5,0-9.8,5.4-9.8,11.4c0,6.1,3.3,11.1,9.8,11.1
	c5.7,0,9.3-3.9,9-9.7h-8.8v-1.3H21.7z M34.5,1L43.9,25h-1.6l-3-7.7H27.9l-3,7.7h-1.6L32.9,1H34.5z M38.9,16L33.8,2.5h-0.1L28.4,16
	H38.9z M45.6,1h2.1l9.3,22.3h0.1L66.4,1h2.1V25H67V2.9H67L57.9,25h-1.5L47.2,2.9h-0.1V25h-1.5V1z M89,23.7V25H72.7V1h16.1v1.3H74.2
	v9.6H88v1.3H74.2v10.5H89z M111.1,25.5C104,25.5,99.7,20,99.7,13S104,0.5,111.1,0.5c7.1,0,11.4,5.5,11.4,12.5S118.3,25.5,111.1,25.5
	z M111.1,24.3c6.2,0,9.9-5.1,9.9-11.3s-3.7-11.3-9.9-11.3c-6.3,0-9.9,5.1-9.9,11.3S104.9,24.3,111.1,24.3z M132.8,23.7L132.8,23.7
	L141.1,1h1.5L133.7,25H132L123.1,1h1.5L132.8,23.7z M160.5,23.7V25h-16.2V1h16.1v1.3h-14.6v9.6h13.7v1.3h-13.7v10.5H160.5z M163,1
	h10c4.2,0,7.6,1.5,7.6,6.2c0,3.2-1.9,5.6-5.1,6.1v0.1c3.6,0.4,4.4,2.6,4.7,5.1s-0.2,5.2,0.8,6.4h-1.6c-0.9-1.6-0.4-4.4-0.6-6.7
	c-0.3-2.3-1.4-4.2-5.6-4.2h-8.5V25H163V1z M173,12.8c3.5,0,6.1-1.6,6.1-5.5c0-3.6-2.9-5-6.1-5h-8.5v10.5H173z"/>
</svg>
