<?xml version="1.0" encoding="utf-8"?>
<!-- Generator: Adobe Illustrator 17.1.0, SVG Export Plug-In . SVG Version: 6.00 Build 0)  -->
<!DOCTYPE svg PUBLIC "-//W3C//DTD SVG 1.1//EN" "http://www.w3.org/Graphics/SVG/1.1/DTD/svg11.dtd">
<svg version="1.1" id="Layer_1" xmlns="http://www.w3.org/2000/svg" xmlns:xlink="http://www.w3.org/1999/xlink" x="0px" y="0px"
	 viewBox="0 0 628.5 86.9" enable-background="new 0 0 628.5 86.9" xml:space="preserve">
<g>
	<linearGradient id="SVGID_1_" gradientUnits="userSpaceOnUse" x1="2.4744" y1="1.9121" x2="2.4744" y2="82.2168">
		<stop  offset="0" style="stop-color:#44AEE3"/>
		<stop  offset="0.3379" style="stop-color:#386FA7"/>
		<stop  offset="0.5181" style="stop-color:#1390CF"/>
		<stop  offset="0.6988" style="stop-color:#325C97"/>
		<stop  offset="1" style="stop-color:#282973"/>
	</linearGradient>
	<path fill="url(#SVGID_1_)" d="M0,1.9h4.9v80.3H0V1.9z"/>
	<linearGradient id="SVGID_2_" gradientUnits="userSpaceOnUse" x1="50.1619" y1="1.9121" x2="50.1619" y2="82.2168">
		<stop  offset="0" style="stop-color:#44AEE3"/>
		<stop  offset="0.3379" style="stop-color:#386FA7"/>
		<stop  offset="0.5181" style="stop-color:#1390CF"/>
		<stop  offset="0.6988" style="stop-color:#325C97"/>
		<stop  offset="1" style="stop-color:#282973"/>
	</linearGradient>
	<path fill="url(#SVGID_2_)" d="M19.1,1.9h6.2L76,75.6h0.2V1.9h4.9v80.3h-5.8L24.3,8h-0.2v74.2h-4.9V1.9z"/>
	<linearGradient id="SVGID_3_" gradientUnits="userSpaceOnUse" x1="159.5376" y1="1.036824e-10" x2="159.5376" y2="84.1289">
		<stop  offset="0" style="stop-color:#44AEE3"/>
		<stop  offset="0.3379" style="stop-color:#386FA7"/>
		<stop  offset="0.5181" style="stop-color:#1390CF"/>
		<stop  offset="0.6988" style="stop-color:#325C97"/>
		<stop  offset="1" style="stop-color:#282973"/>
	</linearGradient>
	<path fill="url(#SVGID_3_)" d="M189.2,25.9C187,12.4,175.2,4.3,161.8,4.3c-21,0-33.3,17.2-33.3,37.8c0,20.6,12.3,37.8,33.3,37.8
		c15.6,0,27.8-13.9,28.7-28.9h4.9c-1.8,19.1-16,33.2-33.6,33.2c-24.1,0-38.2-18.6-38.2-42.1S137.8,0,161.8,0
		c28.5,0,32.2,24.7,32.3,25.9H189.2z"/>
	<linearGradient id="SVGID_4_" gradientUnits="userSpaceOnUse" x1="240.4031" y1="2.728484e-12" x2="240.4031" y2="84.1289">
		<stop  offset="0" style="stop-color:#44AEE3"/>
		<stop  offset="0.3379" style="stop-color:#386FA7"/>
		<stop  offset="0.5181" style="stop-color:#1390CF"/>
		<stop  offset="0.6988" style="stop-color:#325C97"/>
		<stop  offset="1" style="stop-color:#282973"/>
	</linearGradient>
	<path fill="url(#SVGID_4_)" d="M240.5,84.1c-24.1,0-38.2-18.6-38.2-42.1S216.4,0,240.5,0c24,0,38.1,18.6,38.1,42.1
		S264.4,84.1,240.5,84.1z M240.5,79.9c20.9,0,33.2-17.2,33.2-37.8c0-20.6-12.3-37.8-33.2-37.8c-21,0-33.3,17.2-33.3,37.8
		C207.2,62.6,219.4,79.9,240.5,79.9z"/>
	<linearGradient id="SVGID_5_" gradientUnits="userSpaceOnUse" x1="320.2" y1="1.9121" x2="320.2" y2="82.2168">
		<stop  offset="0" style="stop-color:#44AEE3"/>
		<stop  offset="0.3379" style="stop-color:#386FA7"/>
		<stop  offset="0.5181" style="stop-color:#1390CF"/>
		<stop  offset="0.6988" style="stop-color:#325C97"/>
		<stop  offset="1" style="stop-color:#282973"/>
	</linearGradient>
	<path fill="url(#SVGID_5_)" d="M289.2,1.9h6.2l50.7,73.7h0.2V1.9h4.9v80.3h-5.8L294.3,8h-0.2v74.2h-4.9V1.9z"/>
	<linearGradient id="SVGID_6_" gradientUnits="userSpaceOnUse" x1="387.5127" y1="1.9121" x2="387.5127" y2="82.2168">
		<stop  offset="0" style="stop-color:#44AEE3"/>
		<stop  offset="0.3379" style="stop-color:#386FA7"/>
		<stop  offset="0.5181" style="stop-color:#1390CF"/>
		<stop  offset="0.6988" style="stop-color:#325C97"/>
		<stop  offset="1" style="stop-color:#282973"/>
	</linearGradient>
	<path fill="url(#SVGID_6_)" d="M356.8,6.2V1.9h61.5v4.3h-28.3v76H385v-76H356.8z"/>
	<linearGradient id="SVGID_7_" gradientUnits="userSpaceOnUse" x1="453.813" y1="1.9121" x2="453.813" y2="82.2168">
		<stop  offset="0" style="stop-color:#44AEE3"/>
		<stop  offset="0.3379" style="stop-color:#386FA7"/>
		<stop  offset="0.5181" style="stop-color:#1390CF"/>
		<stop  offset="0.6988" style="stop-color:#325C97"/>
		<stop  offset="1" style="stop-color:#282973"/>
	</linearGradient>
	<path fill="url(#SVGID_7_)" d="M423.8,1.9h33.5c14.1,0,25.4,5.2,25.4,20.7c0,10.8-6.5,18.8-17.2,20.6v0.2
		c11.9,1.4,14.8,8.9,15.6,17.2c0.8,8.3-0.6,17.3,2.7,21.6h-5.5c-3-5.5-1.2-14.7-2.1-22.5c-1-7.8-4.8-14.1-18.9-14.1h-28.6v36.6h-4.9
		V1.9z M457.3,41.4c11.7,0,20.5-5.5,20.5-18.4c0-12.1-9.7-16.8-20.5-16.8h-28.6v35.2H457.3z"/>
	<linearGradient id="SVGID_8_" gradientUnits="userSpaceOnUse" x1="529.2222" y1="2.728484e-12" x2="529.2222" y2="84.1289">
		<stop  offset="0" style="stop-color:#44AEE3"/>
		<stop  offset="0.3379" style="stop-color:#386FA7"/>
		<stop  offset="0.5181" style="stop-color:#1390CF"/>
		<stop  offset="0.6988" style="stop-color:#325C97"/>
		<stop  offset="1" style="stop-color:#282973"/>
	</linearGradient>
	<path fill="url(#SVGID_8_)" d="M529.3,84.1c-24.1,0-38.2-18.6-38.2-42.1S505.2,0,529.3,0c24,0,38.1,18.6,38.1,42.1
		S553.2,84.1,529.3,84.1z M529.3,79.9c20.9,0,33.2-17.2,33.2-37.8c0-20.6-12.3-37.8-33.2-37.8c-21,0-33.3,17.2-33.3,37.8
		C496,62.6,508.2,79.9,529.3,79.9z"/>
	<linearGradient id="SVGID_9_" gradientUnits="userSpaceOnUse" x1="603.2271" y1="1.9121" x2="603.2271" y2="82.2168">
		<stop  offset="0" style="stop-color:#44AEE3"/>
		<stop  offset="0.3379" style="stop-color:#386FA7"/>
		<stop  offset="0.5181" style="stop-color:#1390CF"/>
		<stop  offset="0.6988" style="stop-color:#325C97"/>
		<stop  offset="1" style="stop-color:#282973"/>
	</linearGradient>
	<path fill="url(#SVGID_9_)" d="M578,1.9h4.9v76h45.6v4.3H578V1.9z"/>
</g>
</svg>
