<?xml version="1.0" encoding="utf-8"?>
<!-- Generator: Adobe Illustrator 17.1.0, SVG Export Plug-In . SVG Version: 6.00 Build 0)  -->
<!DOCTYPE svg PUBLIC "-//W3C//DTD SVG 1.1//EN" "http://www.w3.org/Graphics/SVG/1.1/DTD/svg11.dtd">
<svg version="1.1" id="Layer_1" xmlns="http://www.w3.org/2000/svg" xmlns:xlink="http://www.w3.org/1999/xlink" x="0px" y="0px"
	 viewBox="0 0 1000 1000" enable-background="new 0 0 1000 1000" xml:space="preserve">
<linearGradient id="SVGID_1_" gradientUnits="userSpaceOnUse" x1="33" y1="1074.452" x2="33" y2="1058.3813" gradientTransform="matrix(15.1515 0 0 -15.1515 0 16279.1768)">
	<stop  offset="0" style="stop-color:#FCB12A"/>
	<stop  offset="0.2561" style="stop-color:#D19A2A"/>
	<stop  offset="0.5501" style="stop-color:#FFFFFF"/>
	<stop  offset="0.724" style="stop-color:#E9A422"/>
</linearGradient>
<path fill="url(#SVGID_1_)" d="M6.1,4.6h92.4c43.9,0,63.6,22.7,63.6,59.1c0,24.2-10.6,47-36.4,53l0,0c30.3,3,43.9,28.8,43.9,53
	c0,40.9-19.7,69.7-71.2,69.7H6.1V4.6z M66.6,95.5h15.2c12.1,0,19.7-10.6,19.7-24.2s-7.6-24.2-19.7-24.2H66.6V95.5z M66.6,194.1h16.7
	c10.6,0,21.2-9.1,21.2-28.8c0-18.2-10.6-28.8-21.2-28.8H66.6V194.1z M269.7,0.1c62.1,0,83.3,34.8,83.3,121.2
	c0,87.9-21.2,121.2-83.3,121.2s-83.3-34.8-83.3-121.2C186.3,33.5,207.6,0.1,269.7,0.1z M269.7,201.6c18.2,0,21.2-16.7,21.2-80.3
	s-3-80.3-21.2-80.3s-21.2,16.7-21.2,80.3S249.9,201.6,269.7,201.6z M375.8,4.6H444l39.4,143.9l0,0V4.6H541v234.8h-66.7L433.4,93.9
	l0,0v145.5h-57.6V4.6L375.8,4.6z M627.2,4.6v169.7c0,22.7,7.6,28.8,18.2,28.8c12.1,0,18.2-6.1,18.2-28.8V4.6h60.6v153
	c0,65.2-28.8,84.8-78.8,84.8c-51.5,0-78.8-19.7-78.8-84.8V4.6H627.2z M843.9,71.3v-4.5c0-13.6-6.1-25.8-16.7-25.8
	c-13.6,0-19.7,10.6-19.7,21.2c0,47,100,24.2,100,109.1c0,50-28.8,72.7-83.3,72.7c-50,0-78.8-16.7-78.8-66.7v-7.6h59.1v4.5
	c0,19.7,7.6,27.3,19.7,27.3s19.7-9.1,19.7-22.7c0-47-95.5-22.7-95.5-106.1c0-47,25.8-72.7,77.3-72.7c53,0,75.8,22.7,75.8,72.7h-57.6
	V71.3z M936.4,82V4.7H994v78.8l-7.6,87.9h-43.9L936.4,82z M937.9,186.5h54.5V238h-54.5V186.5z"/>
</svg>
