<?xml version="1.0" encoding="utf-8"?>
<!-- Generator: Adobe Illustrator 17.1.0, SVG Export Plug-In . SVG Version: 6.00 Build 0)  -->
<!DOCTYPE svg PUBLIC "-//W3C//DTD SVG 1.1//EN" "http://www.w3.org/Graphics/SVG/1.1/DTD/svg11.dtd">
<svg version="1.1" id="Layer_1" xmlns="http://www.w3.org/2000/svg" xmlns:xlink="http://www.w3.org/1999/xlink" x="0px" y="0px"
	 viewBox="0 0 513.9 82.2" enable-background="new 0 0 513.9 82.2" xml:space="preserve">
<g>
	<linearGradient id="SVGID_1_" gradientUnits="userSpaceOnUse" x1="2.9032" y1="-1.100489e-10" x2="2.9032" y2="79.5362">
		<stop  offset="0" style="stop-color:#44AEE3"/>
		<stop  offset="0.3379" style="stop-color:#386FA7"/>
		<stop  offset="0.5181" style="stop-color:#1390CF"/>
		<stop  offset="0.6988" style="stop-color:#325C97"/>
		<stop  offset="1" style="stop-color:#282973"/>
	</linearGradient>
	<path fill="url(#SVGID_1_)" d="M0.5,0h4.9v79.5H0.5V0z"/>
	<linearGradient id="SVGID_2_" gradientUnits="userSpaceOnUse" x1="41.2761" y1="20.9421" x2="41.2761" y2="79.5362">
		<stop  offset="0" style="stop-color:#44AEE3"/>
		<stop  offset="0.3379" style="stop-color:#386FA7"/>
		<stop  offset="0.5181" style="stop-color:#1390CF"/>
		<stop  offset="0.6988" style="stop-color:#325C97"/>
		<stop  offset="1" style="stop-color:#282973"/>
	</linearGradient>
	<path fill="url(#SVGID_2_)" d="M18.6,22.3h4.2v12.3h0.2C26,26,34.6,20.9,43.6,20.9c20.2,0,20.4,16.2,20.4,23.2v35.4h-4.2V43.3
		c0-5.9-0.7-18.7-16.3-18.7c-12.8,0-20.6,9.9-20.6,24v31h-4.2V22.3z"/>
	<linearGradient id="SVGID_3_" gradientUnits="userSpaceOnUse" x1="96.9678" y1="20.9421" x2="96.9678" y2="80.8726">
		<stop  offset="0" style="stop-color:#44AEE3"/>
		<stop  offset="0.3379" style="stop-color:#386FA7"/>
		<stop  offset="0.5181" style="stop-color:#1390CF"/>
		<stop  offset="0.6988" style="stop-color:#325C97"/>
		<stop  offset="1" style="stop-color:#282973"/>
	</linearGradient>
	<path fill="url(#SVGID_3_)" d="M78.4,60.5c0.7,10.6,8.6,16.7,18.9,16.7c7.5,0,18.2-2.2,18.2-12.1c0-9.7-9.8-11.1-19.6-13.1
		c-9.9-2-19.7-4.6-19.7-16.3c0-11.4,11-14.7,20.7-14.7c12.1,0,21.2,5.2,21.2,18.3h-4.2c-0.1-10.4-7.4-14.6-16.9-14.6
		c-7.8,0-16.5,2.9-16.5,11c0,9.1,9.8,10.6,19,12.6c11.4,2.1,20.3,4.8,20.3,16.8c0,12.4-12.4,15.8-22.4,15.8c-13,0-22.8-7-23.2-20.4
		H78.4z"/>
	<linearGradient id="SVGID_4_" gradientUnits="userSpaceOnUse" x1="137.3971" y1="4.4553" x2="137.3971" y2="79.6425">
		<stop  offset="0" style="stop-color:#44AEE3"/>
		<stop  offset="0.3379" style="stop-color:#386FA7"/>
		<stop  offset="0.5181" style="stop-color:#1390CF"/>
		<stop  offset="0.6988" style="stop-color:#325C97"/>
		<stop  offset="1" style="stop-color:#282973"/>
	</linearGradient>
	<path fill="url(#SVGID_4_)" d="M151,26h-12.5v40c0,9.2,4.3,10.1,12.4,9.9v3.7c-8.7,0.6-17-0.7-16.6-13.6V26h-10.6v-3.7h10.6V4.5
		h4.2v17.8H151V26z"/>
	<linearGradient id="SVGID_5_" gradientUnits="userSpaceOnUse" x1="172.0928" y1="21.9215" x2="172.0928" y2="79.5362">
		<stop  offset="0" style="stop-color:#44AEE3"/>
		<stop  offset="0.3379" style="stop-color:#386FA7"/>
		<stop  offset="0.5181" style="stop-color:#1390CF"/>
		<stop  offset="0.6988" style="stop-color:#325C97"/>
		<stop  offset="1" style="stop-color:#282973"/>
	</linearGradient>
	<path fill="url(#SVGID_5_)" d="M163.1,35h0.3c2.2-7.5,11.6-13.5,21.9-13v4.2c-4.5-0.6-10.7,0.6-15.8,5.6c-4.2,4.3-6,7.9-6.5,16.5
		v31.3h-4.2V22.3h4.2V35z"/>
	<linearGradient id="SVGID_6_" gradientUnits="userSpaceOnUse" x1="212.4699" y1="22.2786" x2="212.4699" y2="80.8726">
		<stop  offset="0" style="stop-color:#44AEE3"/>
		<stop  offset="0.3379" style="stop-color:#386FA7"/>
		<stop  offset="0.5181" style="stop-color:#1390CF"/>
		<stop  offset="0.6988" style="stop-color:#325C97"/>
		<stop  offset="1" style="stop-color:#282973"/>
	</linearGradient>
	<path fill="url(#SVGID_6_)" d="M235.1,79.5h-4.2V67.3h-0.2c-2.9,8.6-11.6,13.6-20.5,13.6c-20.2,0-20.4-16.2-20.4-23.2V22.3h4.2
		v36.2c0,5.9,0.7,18.7,16.3,18.7c12.8,0,20.6-9.9,20.6-24v-31h4.2V79.5z"/>
	<linearGradient id="SVGID_7_" gradientUnits="userSpaceOnUse" x1="270.2777" y1="20.9421" x2="270.2777" y2="80.8726">
		<stop  offset="0" style="stop-color:#44AEE3"/>
		<stop  offset="0.3379" style="stop-color:#386FA7"/>
		<stop  offset="0.5181" style="stop-color:#1390CF"/>
		<stop  offset="0.6988" style="stop-color:#325C97"/>
		<stop  offset="1" style="stop-color:#282973"/>
	</linearGradient>
	<path fill="url(#SVGID_7_)" d="M290.7,40c-0.8-10.1-9-15.4-19.4-15.4c-14.4,0-22.1,12.7-22.1,25.7c0,15.5,7.2,26.8,22.1,26.8
		c10.7,0,18.5-7.4,19.9-17.8h4.2c-1.9,13.7-11.8,21.5-24.2,21.5c-18.6,0-26.3-14.6-26.3-30.5c0-15.9,9.4-29.4,26.3-29.4
		c12.4,0,22.4,6,23.6,19H290.7z"/>
	<linearGradient id="SVGID_8_" gradientUnits="userSpaceOnUse" x1="312.8238" y1="4.4553" x2="312.8238" y2="79.6425">
		<stop  offset="0" style="stop-color:#44AEE3"/>
		<stop  offset="0.3379" style="stop-color:#386FA7"/>
		<stop  offset="0.5181" style="stop-color:#1390CF"/>
		<stop  offset="0.6988" style="stop-color:#325C97"/>
		<stop  offset="1" style="stop-color:#282973"/>
	</linearGradient>
	<path fill="url(#SVGID_8_)" d="M326.5,26H314v40c0,9.2,4.3,10.1,12.4,9.9v3.7c-8.7,0.6-17-0.7-16.6-13.6V26h-10.6v-3.7h10.6V4.5
		h4.2v17.8h12.5V26z"/>
	<linearGradient id="SVGID_9_" gradientUnits="userSpaceOnUse" x1="337.3823" y1="-9.458745e-11" x2="337.3823" y2="79.5362">
		<stop  offset="0" style="stop-color:#44AEE3"/>
		<stop  offset="0.3379" style="stop-color:#386FA7"/>
		<stop  offset="0.5181" style="stop-color:#1390CF"/>
		<stop  offset="0.6988" style="stop-color:#325C97"/>
		<stop  offset="1" style="stop-color:#282973"/>
	</linearGradient>
	<path fill="url(#SVGID_9_)" d="M335.3,11.5V0h4.2v11.5H335.3z M335.3,79.5V22.3h4.2v57.3H335.3z"/>
	<linearGradient id="SVGID_10_" gradientUnits="userSpaceOnUse" x1="376.5914" y1="20.9421" x2="376.5914" y2="80.8726">
		<stop  offset="0" style="stop-color:#44AEE3"/>
		<stop  offset="0.3379" style="stop-color:#386FA7"/>
		<stop  offset="0.5181" style="stop-color:#1390CF"/>
		<stop  offset="0.6988" style="stop-color:#325C97"/>
		<stop  offset="1" style="stop-color:#282973"/>
	</linearGradient>
	<path fill="url(#SVGID_10_)" d="M376.6,20.9c16.8,0,26.3,13.7,26.3,30c0,16.3-9.5,30-26.3,30c-16.8,0-26.3-13.7-26.3-30
		C350.3,34.6,359.8,20.9,376.6,20.9z M376.6,77.2c14.4,0,22.1-12.6,22.1-26.3c0-13.7-7.7-26.3-22.1-26.3
		c-14.4,0-22.1,12.6-22.1,26.3C354.5,64.6,362.2,77.2,376.6,77.2z"/>
	<linearGradient id="SVGID_11_" gradientUnits="userSpaceOnUse" x1="435.4557" y1="20.9421" x2="435.4557" y2="79.5362">
		<stop  offset="0" style="stop-color:#44AEE3"/>
		<stop  offset="0.3379" style="stop-color:#386FA7"/>
		<stop  offset="0.5181" style="stop-color:#1390CF"/>
		<stop  offset="0.6988" style="stop-color:#325C97"/>
		<stop  offset="1" style="stop-color:#282973"/>
	</linearGradient>
	<path fill="url(#SVGID_11_)" d="M412.8,22.3h4.2v12.3h0.2c2.9-8.6,11.6-13.6,20.5-13.6c20.2,0,20.4,16.2,20.4,23.2v35.4h-4.2V43.3
		c0-5.9-0.7-18.7-16.3-18.7c-12.8,0-20.6,9.9-20.6,24v31h-4.2V22.3z"/>
	<linearGradient id="SVGID_12_" gradientUnits="userSpaceOnUse" x1="491.1474" y1="20.9421" x2="491.1474" y2="80.8726">
		<stop  offset="0" style="stop-color:#44AEE3"/>
		<stop  offset="0.3379" style="stop-color:#386FA7"/>
		<stop  offset="0.5181" style="stop-color:#1390CF"/>
		<stop  offset="0.6988" style="stop-color:#325C97"/>
		<stop  offset="1" style="stop-color:#282973"/>
	</linearGradient>
	<path fill="url(#SVGID_12_)" d="M472.6,60.5c0.7,10.6,8.6,16.7,18.9,16.7c7.5,0,18.2-2.2,18.2-12.1c0-9.7-9.8-11.1-19.6-13.1
		c-9.9-2-19.7-4.6-19.7-16.3c0-11.4,11-14.7,20.7-14.7c12.1,0,21.2,5.2,21.2,18.3H508c-0.1-10.4-7.4-14.6-16.9-14.6
		c-7.8,0-16.5,2.9-16.5,11c0,9.1,9.8,10.6,19,12.6c11.4,2.1,20.3,4.8,20.3,16.8c0,12.4-12.4,15.8-22.4,15.8c-13,0-22.8-7-23.2-20.4
		H472.6z"/>
</g>
</svg>
