<?xml version="1.0" encoding="utf-8"?>
<!-- Generator: Adobe Illustrator 17.1.0, SVG Export Plug-In . SVG Version: 6.00 Build 0)  -->
<!DOCTYPE svg PUBLIC "-//W3C//DTD SVG 1.1//EN" "http://www.w3.org/Graphics/SVG/1.1/DTD/svg11.dtd">
<svg version="1.1" id="Layer_1" xmlns="http://www.w3.org/2000/svg" xmlns:xlink="http://www.w3.org/1999/xlink" x="0px" y="0px"
	 viewBox="0 751.1 1000 248.9" enable-background="new 0 751.1 1000 248.9" xml:space="preserve">
<linearGradient id="SVGID_1_" gradientUnits="userSpaceOnUse" x1="33" y1="0.6158" x2="33" y2="16.3842" gradientTransform="matrix(15.1515 0 0 15.1515 0 752.2781)">
	<stop  offset="0" style="stop-color:#E71E25"/>
	<stop  offset="0.3463" style="stop-color:#B51B20"/>
	<stop  offset="0.5174" style="stop-color:#EE2725"/>
	<stop  offset="0.6535" style="stop-color:#8E1619"/>
	<stop  offset="1" style="stop-color:#680C0D"/>
</linearGradient>
<path fill="url(#SVGID_1_)" d="M12.1,761.3h60.6v86.4h37.9v-86.4h60.6v234.8h-60.6v-97H72.7v97H12.1
	C12.1,996.2,12.1,761.3,12.1,761.3z M259.1,761.3V931c0,22.7,7.6,28.8,18.2,28.8c12.1,0,18.2-6.1,18.2-28.8V761.3h60.6v153
	c0,65.2-28.8,84.8-78.8,84.8c-51.5,0-78.8-19.7-78.8-84.8v-153H259.1z M383.3,761.3h95.5c47,0,63.6,25.8,63.6,62.1
	c0,31.8-12.1,51.5-39.4,56.1l0,0c28.8,3,37.9,21.2,37.9,53v19.7c0,12.1,0,27.3,3,31.8c1.5,3,3,4.5,7.6,7.6v3h-65.2
	c-6.1-12.1-6.1-34.8-6.1-43.9v-15.2c0-27.3-4.5-33.3-19.7-33.3h-16.7v93.9h-60.6L383.3,761.3L383.3,761.3z M443.9,861.3H456
	c16.7,0,25.8-10.6,25.8-27.3c0-19.7-7.6-27.3-25.8-27.3h-12.1V861.3z M571.2,761.3h95.5c47,0,63.6,25.8,63.6,62.1
	c0,31.8-12.1,51.5-39.4,56.1l0,0c28.8,3,37.9,21.2,37.9,53v19.7c0,12.1,0,27.3,3,31.8c1.5,3,3,4.5,7.6,7.6v3h-65.2
	c-6.1-12.1-6.1-34.8-6.1-43.9v-15.2c0-27.3-4.5-33.3-19.7-33.3h-16.7v93.9h-60.6L571.2,761.3L571.2,761.3z M631.8,861.3h12.1
	c16.7,0,25.8-10.6,25.8-27.3c0-19.7-7.6-27.3-25.8-27.3h-12.1V861.3z M792.4,903.8l-59.1-142.4H800l22.7,81.8l0,0l22.7-81.8h66.7
	L853,903.8v92.4h-60.6V903.8z M930.3,840.1v-78.8h57.6v78.8l-7.6,87.9h-43.9L930.3,840.1z M931.8,944.6h54.5v51.5h-54.5V944.6z"/>
</svg>
